<svg width="396" height="106.40529193715678" viewBox="0 0 370.3529411764706 99.51392127693688" class="looka-1j8o68f"><defs id="SvgjsDefs1788"></defs><g id="SvgjsG1789" featurekey="pxMwYC-0" transform="matrix(1.1827183503543008,0,0,1.1827183503543008,-13.108067693538914,-12.260057499383342)" fill="#111111"><path xmlns="http://www.w3.org/2000/svg" d="M89.417,34.67v-3H81.6c0.435-4.506-0.527-7.967-2.884-10.293c-2.949-2.91-7.222-3.158-9.548-3.043v-7.968h-3v17.721h-8.611  V10.366h-3v17.721h-8.611V10.366h-3v17.721h-8.611V10.366h-3v7.962c-2.35-0.102-6.536,0.186-9.438,3.049  c-2.357,2.326-3.319,5.787-2.884,10.293h-7.927v3H27.5v8.611H11.083v3H27.5v8.611H11.083v3H27.5v8.611H11.083v3h16.684  c0.113,0.353,0.259,0.687,0.441,1.002l-9.75,9.75l2.121,2.121l9.823-9.824c0.296,0.145,0.605,0.259,0.93,0.345v16.855h3V73.087  h8.611v21.419h3V73.087h8.611v21.419h3V73.087h8.611v16.666h3V72.742c0.447-0.169,0.861-0.397,1.239-0.678l8.485,9.281l2.214-2.023  l-8.897-9.733c0.009-0.027,0.017-0.057,0.026-0.085h17.183v-3H72.5v-8.611h16.916v-3H72.5v-8.611h16.916v-3H72.5V34.67H89.417z   M76.618,23.522c1.722,1.706,2.374,4.449,1.964,8.147h-6.349c-0.479-1.493-1.607-2.687-3.066-3.238v-7.091  C70.945,21.235,74.426,21.349,76.618,23.522z M23.992,23.522c2.147-2.129,5.533-2.281,7.341-2.188v6.941  c-1.694,0.449-3.033,1.734-3.565,3.394h-5.74C21.618,27.972,22.27,25.229,23.992,23.522z M69.5,67.947c0,1.18-0.96,2.14-2.141,2.14  H50.944V59.506h3.5v-3h-10v3h3.5v10.581H32.64c-1.18,0-2.14-0.96-2.14-2.14V33.227c0-1.18,0.96-2.14,2.14-2.14h34.72  c1.18,0,2.141,0.96,2.141,2.14V67.947z M33.22,41.89l10,2.667l-0.773,2.898l-10-2.667L33.22,41.89z M65.669,41.89l0.773,2.898  l-10,2.667l-0.773-2.898L65.669,41.89z"></path></g><g id="SvgjsG1790" featurekey="Vx5QiU-0" transform="matrix(2.6180361460924613,0,0,2.6180361460924613,107.76392895619199,7.815392350066791)" fill="#111111"><path d="M10.4 6 l1.5 0 l0 14 l-1.5 0 l0 -6.5 l-6.9 0 l0 6.5 l-1.5 0 l0 -14 l1.5 0 l0 6.2 l6.9 0 l0 -6.2 z M22.4 20.2 l-3 0 c-2.1 0 -3.5 -1.4 -3.5 -3.3 l0 -10.9 l1.5 0 l0 10.9 c0 1.1 0.9 2 2 2 l3 0 c1.1 0 2 -0.9 2 -2 l0 -10.9 l1.5 0 l0 10.9 c0 1.9 -1.4 3.3 -3.5 3.3 z M37.7 18.1 l-1.5 0 l-4.1 -9.8 l-0.1 0 l-1.4 11.7 l-1.5 0 l0 -0.6 l1.8 -13.4 l1.8 0 l4.2 10.1 l0.1 0 l4.2 -10.1 l1.8 0 l1.8 13.4 l0 0.6 l-1.5 0 l-1.4 -11.7 l-0.1 0 z M49 16.4 l-1.2 3.6 l-1.5 0 l0 -0.6 l4.9 -13.4 l1.7 0 l4.9 13.4 l0 0.6 l-1.5 0 l-1.2 -3.6 l-6.1 0 z M54.6 15.1 l-2.5 -7.3 l-0.1 0 l-2.5 7.3 l5.1 0 z M60.1 6 l1.5 0 l0 12.7 l7.5 0 l0 1.3 l-9 0 l0 -14 z M72.8 20 l-1.5 0 l0 -14 l1.5 0 l0 14 z M76.39999999999999 16.9 l0 -7.8 c0 -1.9 1.4 -3.3 3.5 -3.3 l3.5 0 c2.1 0 3.5 1.4 3.5 3.3 l0 7.8 c0 1.9 -1.4 3.3 -3.5 3.3 l-3.5 0 c-2.1 0 -3.5 -1.4 -3.5 -3.3 z M85.39999999999999 16.9 l0 -7.8 c0 -1.1 -0.9 -2 -2 -2 l-3.5 0 c-1.1 0 -2 0.9 -2 2 l0 7.8 c0 1.1 0.9 2 2 2 l3.5 0 c1.1 0 2 -0.9 2 -2 z M98.7 20 l-6.8 -11.5 l-0.1 0 l0.2 2.6 l0 8.9 l-1.5 0 l0 -14 l1.6 0 l6.8 11.5 l0.1 0 l-0.2 -2.6 l0 -8.9 l1.5 0 l0 14 l-1.6 0 z"></path></g><g id="SvgjsG1791" featurekey="aAUSXE-0" transform="matrix(0.3357638661916351,0,0,0.3357638661916351,112.46277784611432,66.75767431949923)" fill="#111111"><path d="M14.1 20 l-3.1 0 l0 -7.08 l-6.3 0 l0 7.08 l-3.1 0 l0 -15.98 l3.1 0 l0 6.34 l6.3 0 l0 -6.34 l3.1 0 l0 15.98 z M42.97 4 l0 8.68 q0 1.6 -0.48 2.98 t-1.39 2.41 t-2.22 1.62 t-2.99 0.59 q-1.64 0 -2.96 -0.58 t-2.25 -1.59 t-1.43 -2.38 t-0.5 -2.95 l0 -8.78 l3.1 0 l0 8.8 q0 0.92 0.26 1.73 t0.76 1.41 t1.25 0.95 t1.71 0.35 q1.02 0 1.77 -0.33 t1.24 -0.92 t0.74 -1.39 t0.25 -1.76 l0 -8.84 l3.14 0 z M73.38 20 l-3.04 0 l0 -10.68 l-5.04 8.5 l-4.84 -8.58 l0 10.76 l-3.04 0 l0 -16 l3.5 0 l4.44 7.94 l4.64 -7.94 l3.38 0 l0 16 z M104.36999999999999 20 l-3.4 0 l-1.48 -3.2 l-7.76 0 l-1.5 3.2 l-3.4 0 l7.56 -16 l2.42 0 z M98.27 14.219999999999999 l-2.66 -5.76 l-2.7 5.76 l5.36 0 z M131.12 20 l-3.04 0 l-7.22 -11.22 l0 11.22 l-3.04 0 l0 -16 l3.48 0 l6.78 10.44 l0 -10.44 l3.04 0 l0 16 z M149.07 20 l-3.1 0 l0 -15.98 l3.1 0 l0 15.98 z M176.2 4 l-7.74 12.94 l7.68 0 l0 3.06 l-13.02 0 l7.92 -13.24 l-7.62 0.02 l0 -2.78 l12.78 0 z M200.80999999999997 20 l-10.56 0 l0 -15.98 l10.56 0 l0 2.56 l-7.52 0 l0 3.82 l7.42 0 l0 2.5 l-7.42 0 l0 4.4 l7.52 0 l0 2.7 z M247.75 4.02 l-6.52 9.44 l0 6.56 l-3.14 0 l0 -6.6 l-6.18 -9.4 l3.6 0 l4.16 6.72 l4.34 -6.72 l3.74 0 z M275.5 12 q0 1.72 -0.67 3.24 t-1.83 2.64 t-2.7 1.77 t-3.28 0.65 t-3.29 -0.65 t-2.71 -1.77 t-1.83 -2.63 t-0.67 -3.25 t0.67 -3.26 t1.83 -2.64 t2.71 -1.76 t3.29 -0.64 t3.28 0.64 t2.7 1.77 t1.83 2.64 t0.67 3.25 z M272.38 12 q0 -1.1 -0.42 -2.07 t-1.15 -1.7 t-1.71 -1.16 t-2.08 -0.43 q-1.12 0 -2.1 0.43 t-1.71 1.16 t-1.15 1.7 t-0.42 2.07 q0 1.08 0.42 2.06 t1.15 1.71 t1.71 1.16 t2.1 0.43 q1.1 0 2.08 -0.43 t1.71 -1.16 t1.15 -1.71 t0.42 -2.06 z M303.77 4 l0 8.68 q0 1.6 -0.48 2.98 t-1.39 2.41 t-2.22 1.62 t-2.99 0.59 q-1.64 0 -2.96 -0.58 t-2.25 -1.59 t-1.43 -2.38 t-0.5 -2.95 l0 -8.78 l3.1 0 l0 8.8 q0 0.92 0.26 1.73 t0.76 1.41 t1.25 0.95 t1.71 0.35 q1.02 0 1.77 -0.33 t1.24 -0.92 t0.74 -1.39 t0.25 -1.76 l0 -8.84 l3.14 0 z M330.26 20 l-3.42 0 l-1.14 -3.64 q-0.18 -0.6 -0.45 -1.1 t-0.65 -0.86 t-0.91 -0.56 t-1.25 -0.2 l-1.16 0 l0 6.36 l-3.06 0 l0 -15.98 l6.32 -0.02 q1.02 0 1.9 0.35 t1.52 0.97 t1 1.46 t0.36 1.82 q0 0.7 -0.22 1.36 t-0.62 1.22 t-0.95 0.99 t-1.21 0.65 q0.76 0.28 1.24 0.81 t0.76 1.27 q0.14 0.34 0.26 0.68 t0.25 0.71 t0.28 0.8 t0.33 0.95 q0.22 0.66 0.41 1.13 t0.41 0.83 z M326.2 8.82 q0 -0.56 -0.21 -1.02 t-0.57 -0.8 t-0.85 -0.53 t-1.05 -0.19 l-2.24 0 l0 4.98 l2.24 0 q0.56 0 1.05 -0.17 t0.85 -0.49 t0.57 -0.77 t0.21 -1.01 z M378.12 20 l-3.04 0 l0 -10.68 l-5.04 8.5 l-4.84 -8.58 l0 10.76 l-3.04 0 l0 -16 l3.5 0 l4.44 7.94 l4.64 -7.94 l3.38 0 l0 16 z M406.99 4 l0 8.68 q0 1.6 -0.48 2.98 t-1.39 2.41 t-2.22 1.62 t-2.99 0.59 q-1.64 0 -2.96 -0.58 t-2.25 -1.59 t-1.43 -2.38 t-0.5 -2.95 l0 -8.78 l3.1 0 l0 8.8 q0 0.92 0.26 1.73 t0.76 1.41 t1.25 0.95 t1.71 0.35 q1.02 0 1.77 -0.33 t1.24 -0.92 t0.74 -1.39 t0.25 -1.76 l0 -8.84 l3.14 0 z M432.26000000000005 20 l-10.82 0 l0 -15.98 l3.16 0 l0 12.98 l7.66 0 l0 3 z M454.29 6.779999999999999 l-4.42 0 l0 13.22 l-3.14 0 l0 -13.22 l-4.42 0 l0 -2.76 l11.98 0 l0 2.76 z M471.24 20 l-3.1 0 l0 -15.98 l3.1 0 l0 15.98 z M502.05 20 l-3.04 0 l0 -10.68 l-5.04 8.5 l-4.84 -8.58 l0 10.76 l-3.04 0 l0 -16 l3.5 0 l4.44 7.94 l4.64 -7.94 l3.38 0 l0 16 z M533.28 12 q0 1.72 -0.67 3.24 t-1.83 2.64 t-2.7 1.77 t-3.28 0.65 t-3.29 -0.65 t-2.71 -1.77 t-1.83 -2.63 t-0.67 -3.25 t0.67 -3.26 t1.83 -2.64 t2.71 -1.76 t3.29 -0.64 t3.28 0.64 t2.7 1.77 t1.83 2.64 t0.67 3.25 z M530.16 12 q0 -1.1 -0.42 -2.07 t-1.15 -1.7 t-1.71 -1.16 t-2.08 -0.43 q-1.12 0 -2.1 0.43 t-1.71 1.16 t-1.15 1.7 t-0.42 2.07 q0 1.08 0.42 2.06 t1.15 1.71 t1.71 1.16 t2.1 0.43 q1.1 0 2.08 -0.43 t1.71 -1.16 t1.15 -1.71 t0.42 -2.06 z M561.75 12 q0 1.66 -0.56 3.11 t-1.56 2.54 t-2.39 1.72 t-3.03 0.63 l-6.68 0 l0 -16 l6.68 0 q1.64 0 3.03 0.64 t2.39 1.72 t1.56 2.54 t0.56 3.1 z M558.6099999999999 11.92 q0.02 -1.12 -0.34 -2.12 t-1.04 -1.75 t-1.67 -1.18 t-2.23 -0.43 l-2.7 0 l0 10.92 l2.7 0 q1.22 0 2.19 -0.41 t1.65 -1.14 t1.05 -1.72 t0.39 -2.17 z M590.8 20 l-3.4 0 l-1.48 -3.2 l-7.76 0 l-1.5 3.2 l-3.4 0 l7.56 -16 l2.42 0 z M584.6999999999999 14.219999999999999 l-2.66 -5.76 l-2.7 5.76 l5.36 0 z M615.0699999999999 20 l-10.82 0 l0 -15.98 l3.16 0 l0 12.98 l7.66 0 l0 3 z M663.01 20 l-3.4 0 l-1.48 -3.2 l-7.76 0 l-1.5 3.2 l-3.4 0 l7.56 -16 l2.42 0 z M656.91 14.219999999999999 l-2.66 -5.76 l-2.7 5.76 l5.36 0 z M689.8800000000001 17.06 q-0.68 0.84 -1.48 1.45 t-1.67 1.01 t-1.78 0.59 t-1.81 0.19 q-1.78 0 -3.34 -0.64 t-2.72 -1.76 t-1.84 -2.64 t-0.68 -3.28 q0 -1.72 0.67 -3.23 t1.84 -2.63 t2.73 -1.77 t3.34 -0.65 q2.06 0 3.75 0.84 t2.87 2.24 l-2.1 2.14 q-0.9 -1.22 -2.02 -1.75 t-2.5 -0.53 q-1.14 0 -2.14 0.42 t-1.75 1.15 t-1.18 1.7 t-0.43 2.07 q0 1.12 0.43 2.09 t1.18 1.71 t1.75 1.16 t2.14 0.42 q1.08 0 2.04 -0.4 t1.72 -1.06 l0 -1.54 l-3.28 0 l0 -2.64 l6.26 0 l0 5.34 z M714.69 20 l-10.56 0 l0 -15.98 l10.56 0 l0 2.56 l-7.52 0 l0 3.82 l7.42 0 l0 2.5 l-7.42 0 l0 4.4 l7.52 0 l0 2.7 z M742.2400000000001 20 l-3.04 0 l-7.22 -11.22 l0 11.22 l-3.04 0 l0 -16 l3.48 0 l6.78 10.44 l0 -10.44 l3.04 0 l0 16 z M768.0700000000002 6.779999999999999 l-4.42 0 l0 13.22 l-3.14 0 l0 -13.22 l-4.42 0 l0 -2.76 l11.98 0 l0 2.76 z"></path></g></svg>